<svg xmlns="http://www.w3.org/2000/svg" version="1.1" xmlns:xlink="http://www.w3.org/1999/xlink" xmlns:svgjs="http://svgjs.com/svgjs" width="1000" height="1000"><rect width="1000" height="1000" rx="300" ry="300" fill="#ffffff"></rect><g transform="matrix(1.5625,0,0,1.5625,93.8125,111.8125)"><svg xmlns="http://www.w3.org/2000/svg" version="1.1" xmlns:xlink="http://www.w3.org/1999/xlink" xmlns:svgjs="http://svgjs.com/svgjs" width="512" height="512"><svg xmlns="http://www.w3.org/2000/svg" viewBox="0 0 512 512" width="512" height="512">
<defs>
<filter id="shadow" x="-20%" y="-20%" width="140%" height="140%">
<feDropShadow dx="8" dy="8" stdDeviation="10" flood-opacity="0.3"></feDropShadow>
</filter>
<linearGradient id="cloudGradient" x1="0%" y1="0%" x2="100%" y2="100%">
<stop offset="0%" style="stop-color:#000000"></stop>
<stop offset="100%" style="stop-color:#333333"></stop>
</linearGradient>
</defs>

<!-- Main cloud shape with gradient (moved down) -->
<path fill="url(#cloudGradient)" d="M456 226c-14-78-82-140-166-140-67 0-126 40-151 96-8-3-17-4-26-4-46 0-84 38-84 84s38 84 84 84h320c40 0 72-32 72-72 0-36-25-66-49-72z" filter="url(#shadow)"></path>

<!-- Larger folder shape with rounded corners (moved down) -->
<path fill="white" stroke="white" stroke-width="10" d="M392 240H306l-24 -24H198c-13 0-24 11-24 24v120c0 13 11 24 24 24h194c13 0 24-11 24-24v-96c0-13-11-24-24-24z" rx="8" ry="8" filter="url(#shadow)"></path>

<!-- Open folder icon with white border and rounded corners (moved down) -->
<path fill="black" stroke="white" stroke-width="8" d="M278 280h86c7 0 12 5 12 12v48c0 7-5 12-12 12h-86c-7 0-12-5-12-12v-48c0-7 5-12 12-12z" rx="6" ry="6"></path>
<path fill="black" stroke="white" stroke-width="8" d="M266 280v-12c0-4 3-7 7-7h29l12 19h-48z" rx="3" ry="3"></path>

<!-- Stylized cloud inside open folder (moved down) -->
<path d="M336 312c-2-7-8-12-16-12-7 0-13 4-15 10-1-1-3-1-4-1-5 0-10 5-10 10s5 10 10 10h30c3 0 6-3 6-6 0-3-2-6-5-7" fill="white"></path>
</svg></svg></g></svg>