<?xml version="1.0" standalone="no"?>
<!DOCTYPE svg PUBLIC "-//W3C//DTD SVG 20010904//EN"
 "http://www.w3.org/TR/2001/REC-SVG-20010904/DTD/svg10.dtd">
<svg version="1.0" xmlns="http://www.w3.org/2000/svg"
 width="700.000000pt" height="700.000000pt" viewBox="0 0 700.000000 700.000000"
 preserveAspectRatio="xMidYMid meet">
<metadata>
Created by potrace 1.14, written by Peter Selinger 2001-2017
</metadata>
<g transform="translate(0.000000,700.000000) scale(0.100000,-0.100000)"
fill="#000000" stroke="none">
<path d="M1929 6996 c-2 -2 -31 -6 -64 -10 -33 -3 -73 -8 -90 -11 -34 -6 -98
-18 -105 -20 -3 -1 -23 -5 -45 -9 -22 -4 -76 -19 -120 -32 -446 -136 -812
-390 -1085 -754 -164 -217 -282 -463 -351 -728 -34 -132 -35 -141 -58 -317
-12 -90 -12 -3150 -1 -3230 5 -33 12 -82 15 -110 4 -27 20 -106 37 -175 184
-760 778 -1355 1538 -1538 121 -30 147 -34 295 -52 39 -4 763 -8 1610 -8 1445
0 1548 1 1675 18 268 37 503 114 725 237 126 70 149 84 237 149 382 282 646
663 777 1120 18 60 34 125 37 144 2 19 7 46 10 60 30 126 32 244 32 1770 0
1542 -2 1637 -33 1780 -3 14 -8 40 -11 59 -11 64 -64 242 -100 333 -140 354
-386 678 -689 905 -143 107 -265 177 -465 266 -67 30 -206 74 -300 97 -251 59
-206 58 -1911 59 -856 0 -1558 -1 -1560 -3z"/>
</g>
</svg>
